<svg version="1.1" xmlns="http://www.w3.org/2000/svg" xmlns:xlink="http://www.w3.org/1999/xlink" width="25px" height="25px" viewBox="0,0,256,256"><g fill="#ffffff" fill-rule="nonzero" stroke="none" stroke-width="1" stroke-linecap="butt" stroke-linejoin="miter" stroke-miterlimit="10" stroke-dasharray="" stroke-dashoffset="0" font-family="none" font-weight="none" font-size="none" text-anchor="none" style="mix-blend-mode: normal"><g transform="scale(0.064,0.064)"><path d="M1610,700c-71.792,0 -130,58.208 -130,130v650h-650c-71.792,0 -130,58.208 -130,130c0,71.792 58.208,130 130,130h780c71.792,0 130,-58.208 130,-130v-780c0,-71.792 -58.208,-130 -130,-130z"></path><path d="M3170,1480h-650v-650c0,-71.792 -58.208,-130 -130,-130c-71.792,0 -130,58.208 -130,130v780c0,71.792 58.208,130 130,130h780c71.792,0 130,-58.208 130,-130c0,-71.792 -58.208,-130 -130,-130z"></path><path d="M3170,2260h-780c-71.792,0 -130,58.208 -130,130v780c0,71.792 58.208,130 130,130c71.792,0 130,-58.208 130,-130v-650h650c71.792,0 130,-58.208 130,-130c0,-71.792 -58.208,-130 -130,-130z"></path><path d="M1610,2260h-780c-71.792,0 -130,58.208 -130,130c0,71.792 58.208,130 130,130h650v650c0,71.792 58.208,130 130,130c71.792,0 130,-58.208 130,-130v-780c0,-71.792 -58.208,-130 -130,-130z"></path></g></g></svg>